<mxfile host="65bd71144e">
    <diagram id="CWb_n4CAjd2z9gFYFfTj" name="Class">
        <mxGraphModel dx="1021" dy="452" grid="0" gridSize="10" guides="1" tooltips="1" connect="1" arrows="1" fold="1" page="1" pageScale="1" pageWidth="1169" pageHeight="827" math="0" shadow="0">
            <root>
                <mxCell id="0"/>
                <mxCell id="1" parent="0"/>
                <mxCell id="MuC9Y600PxwRdUE7aGha-76" style="edgeStyle=none;html=1;" edge="1" parent="1" source="zH9yEyfcCZAy-cP3OPAp-57" target="MuC9Y600PxwRdUE7aGha-50">
                    <mxGeometry relative="1" as="geometry"/>
                </mxCell>
                <mxCell id="zH9yEyfcCZAy-cP3OPAp-57" value="Item" style="swimlane;fontStyle=1;align=center;verticalAlign=top;childLayout=stackLayout;horizontal=1;startSize=26;horizontalStack=0;resizeParent=1;resizeParentMax=0;resizeLast=0;collapsible=1;marginBottom=0;" parent="1" vertex="1">
                    <mxGeometry x="815" y="139" width="210" height="138" as="geometry">
                        <mxRectangle x="655" y="465" width="80" height="26" as="alternateBounds"/>
                    </mxGeometry>
                </mxCell>
                <mxCell id="12" value="+ label: string" style="text;strokeColor=none;fillColor=none;align=left;verticalAlign=top;spacingLeft=4;spacingRight=4;overflow=hidden;rotatable=0;points=[[0,0.5],[1,0.5]];portConstraint=eastwest;" parent="zH9yEyfcCZAy-cP3OPAp-57" vertex="1">
                    <mxGeometry y="26" width="210" height="26" as="geometry"/>
                </mxCell>
                <mxCell id="15" value="+ icon: object" style="text;strokeColor=none;fillColor=none;align=left;verticalAlign=top;spacingLeft=4;spacingRight=4;overflow=hidden;rotatable=0;points=[[0,0.5],[1,0.5]];portConstraint=eastwest;" parent="zH9yEyfcCZAy-cP3OPAp-57" vertex="1">
                    <mxGeometry y="52" width="210" height="26" as="geometry"/>
                </mxCell>
                <mxCell id="MuC9Y600PxwRdUE7aGha-41" value="# callback: function" style="text;strokeColor=none;fillColor=none;align=left;verticalAlign=top;spacingLeft=4;spacingRight=4;overflow=hidden;rotatable=0;points=[[0,0.5],[1,0.5]];portConstraint=eastwest;" vertex="1" parent="zH9yEyfcCZAy-cP3OPAp-57">
                    <mxGeometry y="78" width="210" height="26" as="geometry"/>
                </mxCell>
                <mxCell id="zH9yEyfcCZAy-cP3OPAp-59" value="" style="line;strokeWidth=1;fillColor=none;align=left;verticalAlign=middle;spacingTop=-1;spacingLeft=3;spacingRight=3;rotatable=0;labelPosition=right;points=[];portConstraint=eastwest;strokeColor=inherit;" parent="zH9yEyfcCZAy-cP3OPAp-57" vertex="1">
                    <mxGeometry y="104" width="210" height="8" as="geometry"/>
                </mxCell>
                <mxCell id="zH9yEyfcCZAy-cP3OPAp-83" value="+ doSomething(type): type" style="text;strokeColor=none;fillColor=none;align=left;verticalAlign=top;spacingLeft=4;spacingRight=4;overflow=hidden;rotatable=0;points=[[0,0.5],[1,0.5]];portConstraint=eastwest;" parent="zH9yEyfcCZAy-cP3OPAp-57" vertex="1">
                    <mxGeometry y="112" width="210" height="26" as="geometry"/>
                </mxCell>
                <mxCell id="MuC9Y600PxwRdUE7aGha-72" style="edgeStyle=none;html=1;" edge="1" parent="1" source="zH9yEyfcCZAy-cP3OPAp-61" target="MuC9Y600PxwRdUE7aGha-50">
                    <mxGeometry relative="1" as="geometry"/>
                </mxCell>
                <mxCell id="MuC9Y600PxwRdUE7aGha-75" style="edgeStyle=none;html=1;" edge="1" parent="1" source="zH9yEyfcCZAy-cP3OPAp-61" target="SXHfhw6Z6Lz09nfbXiYT-1">
                    <mxGeometry relative="1" as="geometry"/>
                </mxCell>
                <mxCell id="zH9yEyfcCZAy-cP3OPAp-61" value="Group" style="swimlane;fontStyle=1;align=center;verticalAlign=top;childLayout=stackLayout;horizontal=1;startSize=26;horizontalStack=0;resizeParent=1;resizeParentMax=0;resizeLast=0;collapsible=1;marginBottom=0;" parent="1" vertex="1">
                    <mxGeometry x="754" y="520" width="209" height="112" as="geometry"/>
                </mxCell>
                <mxCell id="11" value="+ items: object" style="text;strokeColor=none;fillColor=none;align=left;verticalAlign=top;spacingLeft=4;spacingRight=4;overflow=hidden;rotatable=0;points=[[0,0.5],[1,0.5]];portConstraint=eastwest;" parent="zH9yEyfcCZAy-cP3OPAp-61" vertex="1">
                    <mxGeometry y="26" width="209" height="26" as="geometry"/>
                </mxCell>
                <mxCell id="MuC9Y600PxwRdUE7aGha-49" value="+ label: string" style="text;strokeColor=none;fillColor=none;align=left;verticalAlign=top;spacingLeft=4;spacingRight=4;overflow=hidden;rotatable=0;points=[[0,0.5],[1,0.5]];portConstraint=eastwest;" vertex="1" parent="zH9yEyfcCZAy-cP3OPAp-61">
                    <mxGeometry y="52" width="209" height="26" as="geometry"/>
                </mxCell>
                <mxCell id="zH9yEyfcCZAy-cP3OPAp-63" value="" style="line;strokeWidth=1;fillColor=none;align=left;verticalAlign=middle;spacingTop=-1;spacingLeft=3;spacingRight=3;rotatable=0;labelPosition=right;points=[];portConstraint=eastwest;strokeColor=inherit;" parent="zH9yEyfcCZAy-cP3OPAp-61" vertex="1">
                    <mxGeometry y="78" width="209" height="8" as="geometry"/>
                </mxCell>
                <mxCell id="MuC9Y600PxwRdUE7aGha-48" value="+ rename(string)" style="text;strokeColor=none;fillColor=none;align=left;verticalAlign=top;spacingLeft=4;spacingRight=4;overflow=hidden;rotatable=0;points=[[0,0.5],[1,0.5]];portConstraint=eastwest;" vertex="1" parent="zH9yEyfcCZAy-cP3OPAp-61">
                    <mxGeometry y="86" width="209" height="26" as="geometry"/>
                </mxCell>
                <mxCell id="MuC9Y600PxwRdUE7aGha-66" style="edgeStyle=none;html=1;" edge="1" parent="1" source="SXHfhw6Z6Lz09nfbXiYT-1" target="MuC9Y600PxwRdUE7aGha-50">
                    <mxGeometry relative="1" as="geometry"/>
                </mxCell>
                <mxCell id="SXHfhw6Z6Lz09nfbXiYT-1" value="LayerMenu" style="swimlane;fontStyle=1;align=center;verticalAlign=top;childLayout=stackLayout;horizontal=1;startSize=26;horizontalStack=0;resizeParent=1;resizeParentMax=0;resizeLast=0;collapsible=1;marginBottom=0;" parent="1" vertex="1">
                    <mxGeometry x="411" y="442" width="220" height="268" as="geometry"/>
                </mxCell>
                <mxCell id="MuC9Y600PxwRdUE7aGha-64" value="+ selectedItems: object" style="text;strokeColor=none;fillColor=none;align=left;verticalAlign=top;spacingLeft=4;spacingRight=4;overflow=hidden;rotatable=0;points=[[0,0.5],[1,0.5]];portConstraint=eastwest;" vertex="1" parent="SXHfhw6Z6Lz09nfbXiYT-1">
                    <mxGeometry y="26" width="220" height="26" as="geometry"/>
                </mxCell>
                <mxCell id="SXHfhw6Z6Lz09nfbXiYT-3" value="" style="line;strokeWidth=1;fillColor=none;align=left;verticalAlign=middle;spacingTop=-1;spacingLeft=3;spacingRight=3;rotatable=0;labelPosition=right;points=[];portConstraint=eastwest;strokeColor=inherit;" parent="SXHfhw6Z6Lz09nfbXiYT-1" vertex="1">
                    <mxGeometry y="52" width="220" height="8" as="geometry"/>
                </mxCell>
                <mxCell id="MuC9Y600PxwRdUE7aGha-17" value="+ filterBy(value): object" style="text;strokeColor=none;fillColor=none;align=left;verticalAlign=top;spacingLeft=4;spacingRight=4;overflow=hidden;rotatable=0;points=[[0,0.5],[1,0.5]];portConstraint=eastwest;" vertex="1" parent="SXHfhw6Z6Lz09nfbXiYT-1">
                    <mxGeometry y="60" width="220" height="26" as="geometry"/>
                </mxCell>
                <mxCell id="MuC9Y600PxwRdUE7aGha-60" value="+ addToSelection(item): object" style="text;strokeColor=none;fillColor=none;align=left;verticalAlign=top;spacingLeft=4;spacingRight=4;overflow=hidden;rotatable=0;points=[[0,0.5],[1,0.5]];portConstraint=eastwest;" vertex="1" parent="SXHfhw6Z6Lz09nfbXiYT-1">
                    <mxGeometry y="86" width="220" height="26" as="geometry"/>
                </mxCell>
                <mxCell id="MuC9Y600PxwRdUE7aGha-18" value="+ removeFromSelection(item): object" style="text;strokeColor=none;fillColor=none;align=left;verticalAlign=top;spacingLeft=4;spacingRight=4;overflow=hidden;rotatable=0;points=[[0,0.5],[1,0.5]];portConstraint=eastwest;" vertex="1" parent="SXHfhw6Z6Lz09nfbXiYT-1">
                    <mxGeometry y="112" width="220" height="26" as="geometry"/>
                </mxCell>
                <mxCell id="MuC9Y600PxwRdUE7aGha-19" value="+ removeSelected(items)" style="text;strokeColor=none;fillColor=none;align=left;verticalAlign=top;spacingLeft=4;spacingRight=4;overflow=hidden;rotatable=0;points=[[0,0.5],[1,0.5]];portConstraint=eastwest;" vertex="1" parent="SXHfhw6Z6Lz09nfbXiYT-1">
                    <mxGeometry y="138" width="220" height="26" as="geometry"/>
                </mxCell>
                <mxCell id="MuC9Y600PxwRdUE7aGha-20" value="+ countItems(): int" style="text;strokeColor=none;fillColor=none;align=left;verticalAlign=top;spacingLeft=4;spacingRight=4;overflow=hidden;rotatable=0;points=[[0,0.5],[1,0.5]];portConstraint=eastwest;" vertex="1" parent="SXHfhw6Z6Lz09nfbXiYT-1">
                    <mxGeometry y="164" width="220" height="26" as="geometry"/>
                </mxCell>
                <mxCell id="MuC9Y600PxwRdUE7aGha-21" value="+ reset(): object" style="text;strokeColor=none;fillColor=none;align=left;verticalAlign=top;spacingLeft=4;spacingRight=4;overflow=hidden;rotatable=0;points=[[0,0.5],[1,0.5]];portConstraint=eastwest;" vertex="1" parent="SXHfhw6Z6Lz09nfbXiYT-1">
                    <mxGeometry y="190" width="220" height="26" as="geometry"/>
                </mxCell>
                <mxCell id="MuC9Y600PxwRdUE7aGha-61" value="+ addGroup(): object" style="text;strokeColor=none;fillColor=none;align=left;verticalAlign=top;spacingLeft=4;spacingRight=4;overflow=hidden;rotatable=0;points=[[0,0.5],[1,0.5]];portConstraint=eastwest;" vertex="1" parent="SXHfhw6Z6Lz09nfbXiYT-1">
                    <mxGeometry y="216" width="220" height="26" as="geometry"/>
                </mxCell>
                <mxCell id="MuC9Y600PxwRdUE7aGha-23" value="+ addItem(): object" style="text;strokeColor=none;fillColor=none;align=left;verticalAlign=top;spacingLeft=4;spacingRight=4;overflow=hidden;rotatable=0;points=[[0,0.5],[1,0.5]];portConstraint=eastwest;" vertex="1" parent="SXHfhw6Z6Lz09nfbXiYT-1">
                    <mxGeometry y="242" width="220" height="26" as="geometry"/>
                </mxCell>
                <mxCell id="MuC9Y600PxwRdUE7aGha-47" value="" style="edgeStyle=none;html=1;" edge="1" parent="1" source="zH9yEyfcCZAy-cP3OPAp-73" target="MuC9Y600PxwRdUE7aGha-42">
                    <mxGeometry relative="1" as="geometry"/>
                </mxCell>
                <mxCell id="zH9yEyfcCZAy-cP3OPAp-73" value="UIComponent" style="swimlane;fontStyle=3;align=center;verticalAlign=top;childLayout=stackLayout;horizontal=1;startSize=26;horizontalStack=0;resizeParent=1;resizeParentMax=0;resizeLast=0;collapsible=1;marginBottom=0;shadow=0;" parent="1" vertex="1">
                    <mxGeometry x="238" y="165" width="119" height="86" as="geometry"/>
                </mxCell>
                <mxCell id="zH9yEyfcCZAy-cP3OPAp-75" value="" style="line;strokeWidth=1;fillColor=none;align=left;verticalAlign=middle;spacingTop=-1;spacingLeft=3;spacingRight=3;rotatable=0;labelPosition=right;points=[];portConstraint=eastwest;strokeColor=inherit;" parent="zH9yEyfcCZAy-cP3OPAp-73" vertex="1">
                    <mxGeometry y="26" width="119" height="8" as="geometry"/>
                </mxCell>
                <mxCell id="GuAcYDnVSEdRQ6eYFPWp-65" value="+ addTo()" style="text;strokeColor=none;fillColor=none;align=left;verticalAlign=top;spacingLeft=4;spacingRight=4;overflow=hidden;rotatable=0;points=[[0,0.5],[1,0.5]];portConstraint=eastwest;" parent="zH9yEyfcCZAy-cP3OPAp-73" vertex="1">
                    <mxGeometry y="34" width="119" height="26" as="geometry"/>
                </mxCell>
                <mxCell id="MuC9Y600PxwRdUE7aGha-22" value="+ help()" style="text;strokeColor=none;fillColor=none;align=left;verticalAlign=top;spacingLeft=4;spacingRight=4;overflow=hidden;rotatable=0;points=[[0,0.5],[1,0.5]];portConstraint=eastwest;" vertex="1" parent="zH9yEyfcCZAy-cP3OPAp-73">
                    <mxGeometry y="60" width="119" height="26" as="geometry"/>
                </mxCell>
                <mxCell id="MuC9Y600PxwRdUE7aGha-67" style="edgeStyle=none;html=1;" edge="1" parent="1" source="MuC9Y600PxwRdUE7aGha-24" target="MuC9Y600PxwRdUE7aGha-50">
                    <mxGeometry relative="1" as="geometry"/>
                </mxCell>
                <mxCell id="MuC9Y600PxwRdUE7aGha-24" value="BaseLayerMenu" style="swimlane;fontStyle=1;align=center;verticalAlign=top;childLayout=stackLayout;horizontal=1;startSize=26;horizontalStack=0;resizeParent=1;resizeParentMax=0;resizeLast=0;collapsible=1;marginBottom=0;" vertex="1" parent="1">
                    <mxGeometry x="88" y="431" width="198" height="60" as="geometry"/>
                </mxCell>
                <mxCell id="MuC9Y600PxwRdUE7aGha-26" value="" style="line;strokeWidth=1;fillColor=none;align=left;verticalAlign=middle;spacingTop=-1;spacingLeft=3;spacingRight=3;rotatable=0;labelPosition=right;points=[];portConstraint=eastwest;strokeColor=inherit;" vertex="1" parent="MuC9Y600PxwRdUE7aGha-24">
                    <mxGeometry y="26" width="198" height="8" as="geometry"/>
                </mxCell>
                <mxCell id="MuC9Y600PxwRdUE7aGha-33" value="+ addBaseLayer()" style="text;strokeColor=none;fillColor=none;align=left;verticalAlign=top;spacingLeft=4;spacingRight=4;overflow=hidden;rotatable=0;points=[[0,0.5],[1,0.5]];portConstraint=eastwest;" vertex="1" parent="MuC9Y600PxwRdUE7aGha-24">
                    <mxGeometry y="34" width="198" height="26" as="geometry"/>
                </mxCell>
                <mxCell id="MuC9Y600PxwRdUE7aGha-42" value="HTMLElement" style="swimlane;fontStyle=3;align=center;verticalAlign=top;childLayout=stackLayout;horizontal=1;startSize=26;horizontalStack=0;resizeParent=1;resizeParentMax=0;resizeLast=0;collapsible=1;marginBottom=0;shadow=0;" vertex="1" parent="1">
                    <mxGeometry x="246" y="51" width="103" height="34" as="geometry"/>
                </mxCell>
                <mxCell id="MuC9Y600PxwRdUE7aGha-43" value="" style="line;strokeWidth=1;fillColor=none;align=left;verticalAlign=middle;spacingTop=-1;spacingLeft=3;spacingRight=3;rotatable=0;labelPosition=right;points=[];portConstraint=eastwest;strokeColor=inherit;" vertex="1" parent="MuC9Y600PxwRdUE7aGha-42">
                    <mxGeometry y="26" width="103" height="8" as="geometry"/>
                </mxCell>
                <mxCell id="MuC9Y600PxwRdUE7aGha-68" style="edgeStyle=none;html=1;" edge="1" parent="1" source="MuC9Y600PxwRdUE7aGha-50" target="zH9yEyfcCZAy-cP3OPAp-73">
                    <mxGeometry relative="1" as="geometry"/>
                </mxCell>
                <mxCell id="MuC9Y600PxwRdUE7aGha-50" value="Menu" style="swimlane;fontStyle=1;align=center;verticalAlign=top;childLayout=stackLayout;horizontal=1;startSize=26;horizontalStack=0;resizeParent=1;resizeParentMax=0;resizeLast=0;collapsible=1;marginBottom=0;" vertex="1" parent="1">
                    <mxGeometry x="506" y="74" width="198" height="268" as="geometry"/>
                </mxCell>
                <mxCell id="MuC9Y600PxwRdUE7aGha-51" value="+ items: object" style="text;strokeColor=none;fillColor=none;align=left;verticalAlign=top;spacingLeft=4;spacingRight=4;overflow=hidden;rotatable=0;points=[[0,0.5],[1,0.5]];portConstraint=eastwest;" vertex="1" parent="MuC9Y600PxwRdUE7aGha-50">
                    <mxGeometry y="26" width="198" height="26" as="geometry"/>
                </mxCell>
                <mxCell id="MuC9Y600PxwRdUE7aGha-56" value="+ groups: object" style="text;strokeColor=none;fillColor=none;align=left;verticalAlign=top;spacingLeft=4;spacingRight=4;overflow=hidden;rotatable=0;points=[[0,0.5],[1,0.5]];portConstraint=eastwest;" vertex="1" parent="MuC9Y600PxwRdUE7aGha-50">
                    <mxGeometry y="52" width="198" height="26" as="geometry"/>
                </mxCell>
                <mxCell id="MuC9Y600PxwRdUE7aGha-65" value="+ selectedItems: object" style="text;strokeColor=none;fillColor=none;align=left;verticalAlign=top;spacingLeft=4;spacingRight=4;overflow=hidden;rotatable=0;points=[[0,0.5],[1,0.5]];portConstraint=eastwest;" vertex="1" parent="MuC9Y600PxwRdUE7aGha-50">
                    <mxGeometry y="78" width="198" height="26" as="geometry"/>
                </mxCell>
                <mxCell id="MuC9Y600PxwRdUE7aGha-52" value="" style="line;strokeWidth=1;fillColor=none;align=left;verticalAlign=middle;spacingTop=-1;spacingLeft=3;spacingRight=3;rotatable=0;labelPosition=right;points=[];portConstraint=eastwest;strokeColor=inherit;" vertex="1" parent="MuC9Y600PxwRdUE7aGha-50">
                    <mxGeometry y="104" width="198" height="8" as="geometry"/>
                </mxCell>
                <mxCell id="MuC9Y600PxwRdUE7aGha-53" value="+ sortBy(value): object" style="text;strokeColor=none;fillColor=none;align=left;verticalAlign=top;spacingLeft=4;spacingRight=4;overflow=hidden;rotatable=0;points=[[0,0.5],[1,0.5]];portConstraint=eastwest;" vertex="1" parent="MuC9Y600PxwRdUE7aGha-50">
                    <mxGeometry y="112" width="198" height="26" as="geometry"/>
                </mxCell>
                <mxCell id="zH9yEyfcCZAy-cP3OPAp-76" value="+ onEach(function)" style="text;strokeColor=none;fillColor=none;align=left;verticalAlign=top;spacingLeft=4;spacingRight=4;overflow=hidden;rotatable=0;points=[[0,0.5],[1,0.5]];portConstraint=eastwest;" parent="MuC9Y600PxwRdUE7aGha-50" vertex="1">
                    <mxGeometry y="138" width="198" height="26" as="geometry"/>
                </mxCell>
                <mxCell id="MuC9Y600PxwRdUE7aGha-58" value="+ disableAll()" style="text;strokeColor=none;fillColor=none;align=left;verticalAlign=top;spacingLeft=4;spacingRight=4;overflow=hidden;rotatable=0;points=[[0,0.5],[1,0.5]];portConstraint=eastwest;" vertex="1" parent="MuC9Y600PxwRdUE7aGha-50">
                    <mxGeometry y="164" width="198" height="26" as="geometry"/>
                </mxCell>
                <mxCell id="MuC9Y600PxwRdUE7aGha-57" value="+ activateAll()" style="text;strokeColor=none;fillColor=none;align=left;verticalAlign=top;spacingLeft=4;spacingRight=4;overflow=hidden;rotatable=0;points=[[0,0.5],[1,0.5]];portConstraint=eastwest;" vertex="1" parent="MuC9Y600PxwRdUE7aGha-50">
                    <mxGeometry y="190" width="198" height="26" as="geometry"/>
                </mxCell>
                <mxCell id="MuC9Y600PxwRdUE7aGha-54" value="+ reset(): object" style="text;strokeColor=none;fillColor=none;align=left;verticalAlign=top;spacingLeft=4;spacingRight=4;overflow=hidden;rotatable=0;points=[[0,0.5],[1,0.5]];portConstraint=eastwest;" vertex="1" parent="MuC9Y600PxwRdUE7aGha-50">
                    <mxGeometry y="216" width="198" height="26" as="geometry"/>
                </mxCell>
                <mxCell id="MuC9Y600PxwRdUE7aGha-55" value="+ group(): object" style="text;strokeColor=none;fillColor=none;align=left;verticalAlign=top;spacingLeft=4;spacingRight=4;overflow=hidden;rotatable=0;points=[[0,0.5],[1,0.5]];portConstraint=eastwest;" vertex="1" parent="MuC9Y600PxwRdUE7aGha-50">
                    <mxGeometry y="242" width="198" height="26" as="geometry"/>
                </mxCell>
            </root>
        </mxGraphModel>
    </diagram>
</mxfile>